<svg width="32" height="32" viewBox="0 0 32 32" fill="none" xmlns="http://www.w3.org/2000/svg">
<path d="M2.5 5C3.88071 5 5 3.88071 5 2.5C5 1.11929 3.88071 0 2.5 0C1.11929 0 0 1.11929 0 2.5C0 3.88071 1.11929 5 2.5 5Z" fill="black"/>
<path d="M2.5 32C3.88071 32 5 30.8807 5 29.5C5 28.1193 3.88071 27 2.5 27C1.11929 27 0 28.1193 0 29.5C0 30.8807 1.11929 32 2.5 32Z" fill="black"/>
<path d="M2.5 18C3.88071 18 5 16.8807 5 15.5C5 14.1193 3.88071 13 2.5 13C1.11929 13 0 14.1193 0 15.5C0 16.8807 1.11929 18 2.5 18Z" fill="black"/>
<path d="M15.5 5C16.8807 5 18 3.88071 18 2.5C18 1.11929 16.8807 0 15.5 0C14.1193 0 13 1.11929 13 2.5C13 3.88071 14.1193 5 15.5 5Z" fill="black"/>
<path d="M15.5 32C16.8807 32 18 30.8807 18 29.5C18 28.1193 16.8807 27 15.5 27C14.1193 27 13 28.1193 13 29.5C13 30.8807 14.1193 32 15.5 32Z" fill="black"/>
<path d="M29.5 5C30.8807 5 32 3.88071 32 2.5C32 1.11929 30.8807 0 29.5 0C28.1193 0 27 1.11929 27 2.5C27 3.88071 28.1193 5 29.5 5Z" fill="black"/>
<path d="M29.5 32C30.8807 32 32 30.8807 32 29.5C32 28.1193 30.8807 27 29.5 27C28.1193 27 27 28.1193 27 29.5C27 30.8807 28.1193 32 29.5 32Z" fill="black"/>
<path d="M29.5 18C30.8807 18 32 16.8807 32 15.5C32 14.1193 30.8807 13 29.5 13C28.1193 13 27 14.1193 27 15.5C27 16.8807 28.1193 18 29.5 18Z" fill="black"/>
</svg>
